<?xml version="1.0" standalone="no"?>
<!DOCTYPE svg PUBLIC "-//W3C//DTD SVG 20010904//EN"
        "http://www.w3.org/TR/2001/REC-SVG-20010904/DTD/svg10.dtd">
<svg version="1.0" xmlns="http://www.w3.org/2000/svg"
     width="226.000000pt" height="300.000000pt" viewBox="0 0 226.000000 300.000000"
     preserveAspectRatio="xMidYMid meet">

    <g transform="translate(0.000000,300.000000) scale(0.100000,-0.100000)"
       fill="#000000" stroke="none">
        <path fill="#FFFFFF" d="M157 2979 c-30 -17 -50 -68 -43 -110 l6 -38 -53 -11 c-51 -12 -53
-14 -49 -41 5 -35 21 -37 93 -9 48 18 56 18 107 5 39 -10 110 -15 229 -15 163
0 173 1 173 19 0 17 -12 19 -192 23 -106 2 -199 7 -205 11 -10 6 -8 13 7 30
11 12 26 38 32 59 10 35 9 41 -12 63 -25 26 -62 32 -93 14z m62 -43 c21 -25
-31 -101 -53 -79 -14 14 -5 72 12 82 23 14 28 13 41 -3z"/>
        <path fill="#FFFFFF" d="M2010 2965 c-21 -22 -22 -28 -12 -63 6 -21 21 -47 32 -59 15 -17 17
-24 7 -30 -6 -4 -101 -9 -209 -11 -186 -4 -198 -5 -198 -23 0 -18 10 -19 178
-19 123 0 195 4 234 15 51 13 59 13 107 -5 72 -28 88 -26 93 9 4 27 2 29 -49
41 l-53 11 6 38 c15 93 -78 158 -136 96z m71 -25 c18 -10 28 -68 13 -83 -11
-11 -35 5 -50 35 -12 23 -13 33 -3 44 14 17 15 17 40 4z"/>
        <path fill="#AA2400" d="M620 2820 c0 -5 5 -10 10 -10 6 0 10 -11 10 -25 0 -14 -5 -25 -10
-25 -7 0 -9 -267 -8 -797 l3 -797 250 -93 249 -94 231 87 c126 48 238 91 248
96 16 8 17 58 17 838 l0 830 -500 0 c-327 0 -500 -3 -500 -10z m371 -510 c4
-96 7 -193 8 -215 l1 -40 103 0 102 0 5 215 5 215 70 3 c124 5 110 71 110
-534 l0 -527 -85 2 c-46 1 -88 5 -92 7 -4 3 -8 99 -8 214 l0 208 -97 4 c-54 2
-101 2 -105 0 -5 -2 -8 -99 -8 -217 0 -185 -2 -214 -16 -219 -22 -8 -147 -7
-161 2 -15 9 -19 162 -15 660 l2 403 88 -3 87 -3 6 -175z m49 -9 c0 -70 3
-149 6 -175 5 -30 3 -46 -4 -46 -8 0 -12 57 -14 175 -2 96 0 175 5 175 4 0 7
-58 7 -129z m403 122 c4 -7 12 -991 8 -1033 -2 -24 -181 -26 -181 -2 0 4 39 6
86 4 l86 -4 -6 513 c-4 282 -9 517 -12 521 -3 4 -1 8 5 8 5 0 12 -3 14 -7z
m-263 -603 c0 -6 -28 -10 -65 -10 l-65 0 -2 -217 -3 -218 -84 -3 c-49 -2 -88
1 -95 8 -7 7 16 10 76 10 l86 0 4 208 c2 114 7 213 11 220 10 15 137 17 137 2z"/>
        <path fill="#FFFFFF" d="M842 2471 c-10 -6 -14 -110 -18 -491 -3 -266 -2 -497 1 -512 7 -28 8
-28 81 -28 l74 0 0 174 c0 95 3 194 6 220 l7 47 116 -3 116 -3 5 -215 5 -215
75 0 75 0 0 118 c0 64 -1 294 -3 511 l-2 394 -45 7 c-26 3 -59 3 -75 0 l-30
-7 0 -191 c0 -106 -3 -202 -6 -214 -6 -21 -12 -22 -121 -25 -75 -2 -117 1
-120 8 -2 5 -5 103 -6 216 -2 197 -3 207 -22 212 -30 8 -98 7 -113 -3z"/>
        <path fill="#FFFFFF" d="M1800 901 c-58 -11 -123 -49 -152 -87 -24 -32 -27 -46 -33 -161 -11
-179 -2 -419 17 -463 17 -40 86 -106 126 -121 94 -36 240 21 280 110 24 52 20
530 -5 594 -19 49 -47 83 -85 103 -45 24 -46 15 0 -12 77 -46 85 -74 93 -334
9 -306 0 -359 -73 -413 -76 -56 -169 -63 -240 -18 -60 38 -88 80 -96 144 -4
29 -5 161 -2 294 6 278 6 277 100 326 40 20 69 27 114 28 46 1 55 3 36 9 -30
10 -35 10 -80 1z"/>
        <path fill="#FFFFFF" d="M204 892 l-32 -3 -3 -142 c-2 -78 -2 -205 2 -282 4 -112 6 -84 7 138
l2 278 58 -3 c54 -3 57 -4 55 -28 -1 -14 0 -89 3 -167 l6 -143 94 0 94 0 2
103 c1 56 3 131 3 167 l0 65 57 3 57 3 4 -88 3 -88 2 93 2 93 -67 -3 -68 -3
-3 -167 -2 -168 -85 0 -85 0 -2 167 -3 168 -35 5 c-19 3 -49 4 -66 2z"/>
        <path fill="#FFFFFF" d="M825 890 l-50 -5 -2 -160 c-2 -88 0 -272 5 -410 l7 -250 62 -3 c51
-2 63 0 70 15 5 10 7 196 5 415 l-4 396 -21 4 c-12 1 -44 1 -72 -2z m85 -415
l0 -405 -60 0 -60 0 -2 218 c-1 119 -2 289 -4 377 -1 88 0 172 3 188 4 26 7
27 64 27 l59 0 0 -405z"/>
        <path fill="#FFFFFF" d="M1078 895 c-5 -5 -8 -192 -8 -416 l0 -407 49 -7 c89 -12 91 -9 91
109 0 57 3 131 6 165 6 56 9 62 28 59 18 -3 29 -28 71 -155 28 -84 55 -157 61
-163 16 -16 120 -25 128 -11 8 12 -62 236 -71 228 -2 -3 12 -51 31 -108 40
-115 38 -122 -29 -112 -54 8 -60 14 -81 86 -10 34 -32 103 -49 152 -29 86 -32
90 -61 93 -41 4 -44 -7 -44 -184 0 -160 1 -158 -80 -147 l-40 6 1 399 1 400
141 -4 c175 -4 208 -17 247 -93 22 -43 25 -62 23 -137 -2 -97 -15 -132 -71
-190 l-36 -38 18 -56 c10 -31 20 -54 23 -51 2 3 -4 28 -14 56 l-18 51 39 37
c50 49 67 90 73 183 5 64 2 84 -17 128 -26 60 -64 97 -118 112 -47 13 -284 25
-294 15z"/>
        <path fill="#FFFFFF" d="M337 717 c2 -72 6 -133 9 -136 2 -2 4 55 4 127 0 72 -4 133 -8 136
-5 3 -7 -54 -5 -127z"/>
        <path fill="#FFFFFF" d="M653 446 l2 -409 -70 2 c-52 2 -67 -1 -59 -9 7 -6 37 -10 75 -8 l64
3 1 185 c1 102 -2 289 -6 415 -8 208 -8 190 -7 -179z"/>
        <path fill="#FFFFFF" d="M944 842 c2 -4 6 -187 7 -407 l3 -400 -67 0 c-37 0 -67 -3 -67 -7 0
-14 137 -9 142 5 9 25 -5 817 -14 817 -5 0 -7 -3 -4 -8z"/>
        <path fill="#FFFFFF" d="M1804 763 c-52 -10 -55 -23 -55 -270 -1 -193 2 -235 15 -261 28 -55
98 -55 139 0 18 25 20 41 18 248 -1 125 -6 231 -12 241 -5 10 -19 23 -32 29
-22 11 -22 11 1 -7 22 -18 23 -25 29 -234 3 -119 3 -227 -1 -242 -9 -39 -33
-57 -76 -57 -67 0 -70 10 -70 275 0 126 4 236 8 242 4 7 26 19 47 27 39 14 33
18 -11 9z"/>
        <path fill="#FFFFFF" d="M1210 650 l0 -110 60 0 c85 0 100 17 100 114 0 92 -14 106 -102 106
l-58 0 0 -110z m128 84 c19 -13 22 -24 22 -80 0 -83 -18 -104 -90 -104 l-50 0
0 100 0 100 48 0 c27 0 57 -7 70 -16z"/>
        <path fill="#FFFFFF" d="M1254 706 c-3 -7 -3 -42 -1 -77 l3 -64 2 72 2 72 38 4 37 4 -38 1
c-24 1 -40 -3 -43 -12z"/>
        <path fill="#FFFFFF" d="M2074 705 c3 -16 7 -142 8 -280 3 -291 0 -306 -87 -360 -43 -27 -57
-30 -126 -30 -43 0 -74 -4 -70 -8 5 -5 33 -9 63 -9 89 -1 178 47 216 117 15
26 17 64 14 299 -1 160 -7 275 -13 285 -7 12 -9 9 -5 -14z"/>
        <path fill="#FFFFFF" d="M1535 627 c-1 -112 -13 -152 -65 -202 -22 -22 -40 -42 -40 -46 0 -15
79 68 95 100 20 39 32 183 18 218 -5 14 -8 -9 -8 -70z"/>
        <path d="M1812 704 c-22 -15 -22 -18 -20 -237 l3 -222 2 214 c4 222 6 235 48
251 13 6 15 9 5 9 -9 1 -26 -6 -38 -15z"/>
        <path fill="#FFFFFF" d="M616 378 l4 -298 -65 0 -65 0 -2 168 -3 167 -86 3 c-105 3 -99 16
-99 -195 l0 -153 -55 0 c-36 0 -57 5 -60 12 -2 7 -8 58 -13 113 -9 99 -9 100
-11 29 0 -39 2 -92 5 -118 l7 -47 66 3 66 3 6 165 c3 91 7 167 8 170 0 3 37 4
81 2 l80 -4 0 -163 c0 -185 -5 -175 86 -175 35 0 56 5 59 13 3 6 1 145 -4 307
l-10 295 5 -297z"/>
        <path fill="#FFFFFF" d="M350 354 c-6 -14 -10 -93 -10 -176 l0 -150 -65 4 c-36 1 -65 -1 -65
-5 0 -4 33 -7 73 -5 l72 3 -4 110 c-1 61 0 136 4 168 l7 57 52 1 c38 0 46 3
31 9 -11 5 -35 9 -53 9 -26 1 -34 -4 -42 -25z"/>
        <path fill="#FFFFFF" d="M1246 329 c-3 -17 -6 -89 -6 -159 0 -146 1 -144 -84 -135 -37 3 -44
2 -26 -4 46 -16 108 -13 119 7 8 16 15 322 7 322 -2 0 -6 -14 -10 -31z"/>
        <path fill="#FFFFFF" d="M1510 145 c0 -5 5 -17 10 -25 5 -8 10 -10 10 -5 0 6 -5 17 -10 25 -5
8 -10 11 -10 5z"/>
        <path fill="#FFFFFF" d="M1533 65 l2 -30 -60 2 c-42 2 -54 0 -40 -7 11 -5 39 -9 63 -9 48 -1
62 16 44 52 -11 21 -11 20 -9 -8z"/>
    </g>
</svg>
