<?xml version="1.0" standalone="no"?>
<!DOCTYPE svg PUBLIC "-//W3C//DTD SVG 20010904//EN"
        "http://www.w3.org/TR/2001/REC-SVG-20010904/DTD/svg10.dtd">
<svg version="1.0" xmlns="http://www.w3.org/2000/svg"
     width="226pt" height="200pt" viewBox="0 0 226 170"
     preserveAspectRatio="xMidYMid meet">

    <g transform="translate(0.000000,300.000000) scale(0.100000,-0.100000)"
       fill="#000000" stroke="none">
        <path fill="#FFFFFF" d="M157 2979 c-30 -17 -50 -68 -43 -110 l6 -38 -53 -11 c-51 -12 -53
-14 -49 -41 5 -35 21 -37 93 -9 48 18 56 18 107 5 39 -10 110 -15 229 -15 163
0 173 1 173 19 0 17 -12 19 -192 23 -106 2 -199 7 -205 11 -10 6 -8 13 7 30
11 12 26 38 32 59 10 35 9 41 -12 63 -25 26 -62 32 -93 14z m62 -43 c21 -25
-31 -101 -53 -79 -14 14 -5 72 12 82 23 14 28 13 41 -3z"/>
        <path fill="#FFFFFF" d="M2010 2965 c-21 -22 -22 -28 -12 -63 6 -21 21 -47 32 -59 15 -17 17
-24 7 -30 -6 -4 -101 -9 -209 -11 -186 -4 -198 -5 -198 -23 0 -18 10 -19 178
-19 123 0 195 4 234 15 51 13 59 13 107 -5 72 -28 88 -26 93 9 4 27 2 29 -49
41 l-53 11 6 38 c15 93 -78 158 -136 96z m71 -25 c18 -10 28 -68 13 -83 -11
-11 -35 5 -50 35 -12 23 -13 33 -3 44 14 17 15 17 40 4z"/>
        <path fill="#AA2400" d="M620 2820 c0 -5 5 -10 10 -10 6 0 10 -11 10 -25 0 -14 -5 -25 -10
-25 -7 0 -9 -267 -8 -797 l3 -797 250 -93 249 -94 231 87 c126 48 238 91 248
96 16 8 17 58 17 838 l0 830 -500 0 c-327 0 -500 -3 -500 -10z m371 -510 c4
-96 7 -193 8 -215 l1 -40 103 0 102 0 5 215 5 215 70 3 c124 5 110 71 110
-534 l0 -527 -85 2 c-46 1 -88 5 -92 7 -4 3 -8 99 -8 214 l0 208 -97 4 c-54 2
-101 2 -105 0 -5 -2 -8 -99 -8 -217 0 -185 -2 -214 -16 -219 -22 -8 -147 -7
-161 2 -15 9 -19 162 -15 660 l2 403 88 -3 87 -3 6 -175z m49 -9 c0 -70 3
-149 6 -175 5 -30 3 -46 -4 -46 -8 0 -12 57 -14 175 -2 96 0 175 5 175 4 0 7
-58 7 -129z m403 122 c4 -7 12 -991 8 -1033 -2 -24 -181 -26 -181 -2 0 4 39 6
86 4 l86 -4 -6 513 c-4 282 -9 517 -12 521 -3 4 -1 8 5 8 5 0 12 -3 14 -7z
m-263 -603 c0 -6 -28 -10 -65 -10 l-65 0 -2 -217 -3 -218 -84 -3 c-49 -2 -88
1 -95 8 -7 7 16 10 76 10 l86 0 4 208 c2 114 7 213 11 220 10 15 137 17 137 2z"/>
        <path fill="#FFFFFF" d="M842 2471 c-10 -6 -14 -110 -18 -491 -3 -266 -2 -497 1 -512 7 -28 8
-28 81 -28 l74 0 0 174 c0 95 3 194 6 220 l7 47 116 -3 116 -3 5 -215 5 -215
75 0 75 0 0 118 c0 64 -1 294 -3 511 l-2 394 -45 7 c-26 3 -59 3 -75 0 l-30
-7 0 -191 c0 -106 -3 -202 -6 -214 -6 -21 -12 -22 -121 -25 -75 -2 -117 1
-120 8 -2 5 -5 103 -6 216 -2 197 -3 207 -22 212 -30 8 -98 7 -113 -3z"/>
    </g>
</svg>